<svg xmlns="http://www.w3.org/2000/svg" fill="none" height="20" width="112"><path fill="#171717" d="M29.81 3.577c0-3.295 3.397-4.547 6.122-1.829l13.03 12.759c.19.183.685.05.685-.21V.828h2.551v15.919c0 3.378-3.579 4.184-5.667 2.148L33.047 5.623c-.19-.184-.685-.054-.686.208v13.467h-2.55V3.578ZM104.647.915c3.873 0 7.012 3.067 7.012 6.85 0 3.783-3.14 6.85-7.012 6.85h-11.14a.414.414 0 0 0-.413.413v4.357h-5.654V.915h17.207Zm-39.21 1.144c1.59-2.728 5.608-2.75 7.232-.04l10.195 17.277h-.533l-.014.002h-5.49l-.014-.002h-.163l-.085-.146-.004-.005-2.4-4.067a.311.311 0 0 0-.267-.153H61.312a.31.31 0 0 0-.269.154l-2.361 4.064-.006.007-.084.146h-.164l-.015.002H56.08l-.014-.002h-.526l9.897-17.237ZM24.47 3.317H8.863c-2.034 0-2.553 2.098-.737 2.917l14.055 5.478c3.805 1.51 3.07 7.585-1.496 7.585H.577v-2.491H16.51c1.39 0 1.994-2.075.394-2.808L3.022 8.779C-1.518 7.313-.74.827 4 .827h20.469v2.49Zm43.336.985a.292.292 0 0 0-.501 0l-4.498 7.74a.31.31 0 0 0 .268.468h9.028a.31.31 0 0 0 .267-.47l-4.564-7.738ZM93.504 3.22a.414.414 0 0 0-.414.414v8.261c0 .23.185.414.414.415h8.105c2.599 0 4.705-2.036 4.705-4.545 0-2.51-2.106-4.545-4.705-4.545h-8.105Z" clip-rule="evenodd" fill-rule="evenodd"></path></svg>